/* XPM */
static char *result[] = {
/* columns rows colors chars-per-pixel */
"16 12 15 1 ",
"  c black",
". c #6C4824",
"X c #004040",
"o c #005858",
"O c #006060",
"+ c #006464",
"@ c #007070",
"# c #646464",
"$ c #A86840",
"% c #F0945C",
"& c #008484",
"* c #009C9C",
"= c #00B4B4",
"- c #FCB080",
"; c #FCE0D0",
/* pixels */
"                ",
"    **&&&&      ",
"   =-;$%%.o     ",
"   *&&&&&+o     ",
"   &@X@X@+o     ",
"   &@o@o@Oo     ",
"   *@@@@@oo     ",
"  *@&@&@@o      ",
" &*@@@@@@o      ",
" ***&&&&+X##### ",
" @++++++XX##### ",
"                "
};
