/* XPM */
static char * porte_xpm[] = {
"64 64 256 2",
"  	c None",
". 	c #141414",
"+ 	c #1A1919",
"@ 	c #1E1E1E",
"# 	c #201E1C",
"$ 	c #26231F",
"% 	c #2E261E",
"& 	c #34200B",
"* 	c #38220C",
"= 	c #3A240C",
"- 	c #3F280E",
"; 	c #362410",
"> 	c #302418",
", 	c #35291C",
"' 	c #392510",
") 	c #3D2810",
"! 	c #202020",
"~ 	c #222221",
"{ 	c #262626",
"] 	c #282421",
"^ 	c #2B2826",
"/ 	c #282828",
"( 	c #2E2E2E",
"_ 	c #302F2D",
": 	c #382F26",
"< 	c #31302F",
"[ 	c #313131",
"} 	c #3A3632",
"| 	c #3C3A37",
"1 	c #383838",
"2 	c #3E3E3E",
"3 	c #40270D",
"4 	c #41280E",
"5 	c #492C0F",
"6 	c #412910",
"7 	c #402A14",
"8 	c #492D11",
"9 	c #4A2E15",
"0 	c #45321F",
"a 	c #4B3011",
"b 	c #4E3011",
"c 	c #4A341D",
"d 	c #513111",
"e 	c #533414",
"f 	c #583612",
"g 	c #5A3813",
"h 	c #5A3814",
"i 	c #5F3C15",
"j 	c #5B3B1A",
"k 	c #4D3A27",
"l 	c #5D3F20",
"m 	c #603B14",
"n 	c #613C15",
"o 	c #683F16",
"p 	c #4D4134",
"q 	c #49423B",
"r 	c #5B4126",
"s 	c #5C4228",
"t 	c #50463B",
"u 	c #5A4C3D",
"v 	c #664016",
"w 	c #664018",
"x 	c #694016",
"y 	c #6A4118",
"z 	c #714618",
"A 	c #71481E",
"B 	c #75481A",
"C 	c #754B1E",
"D 	c #784A1B",
"E 	c #6B4A26",
"F 	c #664E35",
"G 	c #634C38",
"H 	c #77512B",
"I 	c #7C5226",
"J 	c #7B532A",
"K 	c #7A552F",
"L 	c #705436",
"M 	c #414141",
"N 	c #484440",
"O 	c #484848",
"P 	c #534A40",
"Q 	c #504F4D",
"R 	c #594E42",
"S 	c #53514F",
"T 	c #515151",
"U 	c #565656",
"V 	c #5B5853",
"W 	c #595959",
"X 	c #6D5943",
"Y 	c #705941",
"Z 	c #735F4A",
"` 	c #606060",
" .	c #686868",
"..	c #736A60",
"+.	c #707070",
"@.	c #767676",
"#.	c #787571",
"$.	c #7A7A7A",
"%.	c #826241",
"&.	c #866646",
"*.	c #8B6F50",
"=.	c #83705D",
"-.	c #8B7A68",
";.	c #867C72",
">.	c #937E69",
",.	c #878078",
"'.	c #94897F",
").	c #9F8973",
"!.	c #808080",
"~.	c #8D8680",
"{.	c #888888",
"].	c #9D8F80",
"^.	c #909090",
"/.	c #969696",
"(.	c #989898",
"_.	c #9E9E9E",
":.	c #A19588",
"<.	c #A79F97",
"[.	c #A19F9E",
"}.	c #A5A09B",
"|.	c #A0A0A0",
"1.	c #A8A8A7",
"2.	c #A8A8A8",
"3.	c #BBAEA1",
"4.	c #B9B3AD",
"5.	c #B0B0B0",
"6.	c #B4B3B3",
"7.	c #B6B6B6",
"8.	c #B8B8B8",
"9.	c #C3B9AE",
"0.	c #CBC4BE",
"a.	c #C0C0C0",
"b.	c #C9C7C5",
"c.	c #C8C8C8",
"d.	c #D0D0D0",
"e.	c #D6D6D4",
"f.	c #D6D6D6",
"g.	c #D8D8D8",
"h.	c #DFDFDE",
"i.	c #E0E0E0",
"j.	c #5A2612",
"k.	c #000000",
"l.	c #A972B9",
"m.	c #AA216B",
"n.	c #030744",
"o.	c #000401",
"p.	c #000000",
"q.	c #EA9F48",
"r.	c #000000",
"s.	c #0002B1",
"t.	c #000001",
"u.	c #000000",
"v.	c #0001A6",
"w.	c #000002",
"x.	c #00046C",
"y.	c #000013",
"z.	c #00045C",
"A.	c #000003",
"B.	c #00046C",
"C.	c #000013",
"D.	c #0110C9",
"E.	c #000000",
"F.	c #000000",
"G.	c #000000",
"H.	c #000000",
"I.	c #000000",
"J.	c #000000",
"K.	c #000000",
"L.	c #000000",
"M.	c #0002B1",
"N.	c #000000",
"O.	c #000001",
"P.	c #000000",
"Q.	c #1025CD",
"R.	c #FFF960",
"S.	c #030744",
"T.	c #ED7D95",
"U.	c #18F66C",
"V.	c #532566",
"W.	c #309A98",
"X.	c #000000",
"Y.	c #309CA0",
"Z.	c #000004",
"`.	c #000000",
" +	c #000000",
".+	c #550D49",
"++	c #550E02",
"@+	c #18F601",
"#+	c #030744",
"$+	c #000000",
"%+	c #000000",
"&+	c #18F618",
"*+	c #000005",
"=+	c #000000",
"-+	c #18F644",
";+	c #18F634",
">+	c #000000",
",+	c #000000",
"'+	c #550D49",
")+	c #000001",
"!+	c #18F6C4",
"~+	c #000000",
"{+	c #030774",
"]+	c #070D50",
"^+	c #000112",
"/+	c #000000",
"(+	c #000000",
"_+	c #550D49",
":+	c #000001",
"<+	c #18F6E8",
"[+	c #000000",
"}+	c #000000",
"|+	c #18FB04",
"1+	c #550D49",
"2+	c #BAABCD",
"3+	c #ED7E29",
"4+	c #18F698",
"5+	c #A962FA",
"6+	c #030744",
"7+	c #00000F",
"8+	c #000000",
"9+	c #000000",
"0+	c #550D49",
"a+	c #BAABCD",
"b+	c #000000",
"c+	c #000000",
"d+	c #550D49",
"e+	c #18F6A8",
"f+	c #18F6C4",
"g+	c #B00230",
"h+	c #F58845",
"i+	c #18F710",
"j+	c #A96D91",
"k+	c #A96D51",
"l+	c #ED7F09",
"m+	c #00000F",
"n+	c #550D49",
"o+	c #18F99C",
"p+	c #000024",
"q+	c #000001",
"r+	c #000000",
"s+	c #000000",
"t+	c #000070",
"u+	c #FFFFFF",
"v+	c #FFFFFF",
"w+	c #A96CE9",
"x+	c #A96D91",
"y+	c #FFFFFE",
"z+	c #000001",
"A+	c #000000",
"B+	c #000000",
"C+	c #18F6B4",
"D+	c #030744",
"E+	c #18F96C",
"F+	c #000000",
"G+	c #000000",
"^.$.+.!.|.5.5.5.5.5.5.5.5.5.5.5.5.5.5.5.5.5.5.5.5.5.5.5.5.5.5.5.5.5.5.5.5.5.5.5.5.5.5.5.5.5.5.5.5.5.5.5.5.5.5.5.5.5.5.a.g.c.$./ ",
"8.(.^.|.a.g.g.g.g.g.g.g.g.g.g.g.g.g.g.g.g.g.g.g.g.g.g.g.g.g.g.g.g.g.g.g.g.g.g.g.g.g.g.g.g.g.g.g.g.g.g.g.g.g.g.g.g.d.d.i.c.$./ O ",
"g.c.a.d.g.8.|.^.!.+.$.+.+.+.+.+.+.+.+.+.+.+.+.+.+.+.+.+.+.+.+.+.+.+.+.+.+.+.+.+.+.+.+.+.+.+.+.+.+.+.+.+.+.$.!.(.2.a.g.c.$.[ 1 5.",
"d.i.g.a. .! / T  .$.!.!.!.!.!.!.!.!.!.!.!.!.!.!.!.!.!.!.!.!.!.!.!.!.!.!.!.!.!.!.!.!.!.!.!.!.!.!.!.!.!.!.!.$.W M ! [ ` ` / 1 (.g.",
"2.2.{.1 O d.d.(. .W T W W W W W W W W W W W W W W W W W W W W W W W W W W W W W W W W W W W W W W W W W W  .(.c.g.{.[ / 1 ^.i.5.",
"{.$.O [ g.` ! ! ! ! ! + ! + ! + ! + ! + ! + ! + ! + ! + ! + ! + ! + ! + ! + ! + ! + ! + ! + ! + ! ! + ! + ! ! / (.g.{.T +.8.g.!.",
"{.$.M O g.!                                                                                                         ` 1 O 2.g.{.",
"{.$.1 T d.!                                                                                                         / ! / {.g.!.",
"{.$.1 W d./                                                                                                         / [ !  .i.{.",
"{.$.1 W g.O                                                                                                         O T / W i.!.",
"{.$.M T g.+.                                                                                                        +.+.[ T g.{.",
"{.!.M O g.~.                                                                                                        {.!.M O i.!.",
"{.$.M O g.{.                                                                                                        {.!.M O i.{.",
"{.!.M O i.!.                                                                                                        {.$.M O i.!.",
"{.$.M O g.{.                                                                                                        {.!.M O g.{.",
"{.!.M O g.~.                                                                                                        {.$.M O i.!.",
"{.$.M O g.{.                                                                                                        {.!.M O i.{.",
"{.!.M O g.{.                                                                                                        {.$.M O i.!.",
"{.$.M O g.{.                                                                                                        {.!.M O i.{.",
"{.!.M O g.{.                                                                                                        {.$.M O i.!.",
"{.$.M O g.{.                                                                                                        {.!.M O i.{.",
"{.,.M O g.{.                                                                                                        {.$.M O i.!.",
"{.!.1 O g.{.                                                                                                        {.!.M O i.{.",
"{.!.M O g.{.                                                                                                        {.$.M O i.!.",
"{.$.M O g.{.                                                                                                        {.!.M O i.{.",
"{.!.M O g.{.                                                                                                        {.!.M O i.!.",
"{.$.M O i.{.                                                                                                        {.$.M O g.{.",
"{.!.M O g.{.                                                                                                        {.$.M O i.!.",
"{.$.M O i.{.                                                                                                        {.!.M O i.{.",
"{.!.M O i.!.                                                                                                        {.!.M O i.!.",
"{.$.M O i.~.                                                                                                        {.!.1 O i.{.",
"{.,.M O i.!.                                                                                                        {.$.M O i.!.",
"{.!.1 O g.{.                                                                                                        {.!.M O g.{.",
"{.!.M O g.{.                                                                                                        {.$.M O i.!.",
"{.$.M O i.{.                                                                                                        {.!.M O g.{.",
"{.!.M O g.{.                                                                                                        {.$.M O i.!.",
"{.$.M O i.{.                                                                                                        {.!.M O i.~.",
"{.!.M O g.{.                                                                                                        {.$.M O i.!.",
"{.$.M O i.{.                                                                                                        {.!.M O g.{.",
"{.!.M O g.~.                                                                                                        {.$.M O i.!.",
"{.$.M O g.{.                                                                                                        {.!.M O i.{.",
"{.!.M O g.~.                                                                                                        {.!.M O i.!.",
"{.!.1 O i.{.                                                                                                        {.!.1 O g.{.",
"{.!.M O g.{.                                                                                                        {.$.M O i.!.",
"{.$.M O g.{.                                                                                                        {.!.M O g.{.",
"{.!.M O g.{.                                                                                                        {.$.M O i.!.",
"{.$.M O i.{.                                                                                                        {.!.M O i.{.",
"{.!.M O g.~.                                                                                                        {.!.M O i.!.",
"{.$.M O i.{.                                                                                                        {.!.1 O g.{.",
"{.!.M O g.{.                                                                                                        {.!.M O i.!.",
"{.$.M O i.{.                                                                                                        {.$.M O g.{.",
"{.!.M O g.{.                                                                                                        {.!.M O i.!.",
"{.$.M O i.{.                                                                                                        {.!.M O g.{.",
"{.!.M M g.1.                                                                                                        |.{.O O i.!.",
"{.!.O [ a.d.                                                                                                        a.2.T O g.{.",
"{.!.W ! ^.d.                                                                                                        g.a.T O i.!.",
"{.{. ./ O !.                                                                                                        g.d.T T i.{.",
"{.{.+.O ! ^                                                                                                         c.d.O ` i.!.",
"{.{.!. .1 / ` 8.g.g.a.5.5.5.5.5.5.5.5.5.5.5.5.5.5.5.5.5.5.5.5.5.5.4.5.5.5.5.5.5.5.5.5.5.5.5.5.5.5.5.5.5.8.1.^.{.{.2.d.a./ $.g.{.",
" .` O 1 ! ] O (.c.g.g.g.g.g.g.g.g.g.g.g.g.g.g.g.g.g.g.g.g.g.g.g.g.g.g.g.g.g.g.g.g.g.g.g.g.g.g.g.g.g.g.g.g.g.d.d.g.g.8.O M c.a.` ",
"[ ! / M  . .[ ! 1 T  .+.+.+.+.+.+.+.+.+.+.+.+.+.+.+.+.+.+.+.+.+.+.+.+.+.+.+.+.+.+.+.+.+.+.+.+.+.+.+.+.+.+.+.+. .O / /  .g.5.W ! ",
"! V (.g.g.g.g.c.2.^.{.!.!.!.!.!.!.!.!.!.!.!.!.!.!.!.!.!.!.!.!.!.!.!.!.!.!.!.!.!.!.!.!.!.!.!.!.!.!.!.!.!.!.!.{.(.5.c.g.d.+./ ! + ",
"` a.g.^.M ! [ M O T V W W W W V W W V W W W W W W W T W T W W W W W W W W W W W W W W W W W W W W W V W W V T T O 1 [ ! ! ! ! ! ",
"c.a.O + + $ + $ + ! + $ ! + ! ! + ! ! + ! + ! + + ! + $ ! + ! ! + ! + ! # ! # # # # # # # # # ! + ! ! + ! ! ! + $ ! + ! + $ ! + "};
